<svg width="148" height="95" viewBox="0 0 148 95" fill="none" xmlns="http://www.w3.org/2000/svg">
  <path d="M146.463 3.29574C126.186 -1.47536 108.856 13.8676 95.2588 26.9096C83.0843 38.5871 68.1568 47.6435 55.0663 58.3539C48.973 63.3394 43.6892 69.2079 37.57 74.1373C35.8601 75.5147 29.4435 82.0704 31.9419 77.0737" stroke="black" stroke-width="3" stroke-linecap="round"/>
  <path d="M49.5605 12.1055C45.6067 12.8962 40.518 19.375 37.9371 22.0159C30.1985 29.9345 25.7256 40.1663 20.3185 49.6674C12.8689 62.7573 5.5576 78.0094 2.27162 92.7963C2.19561 93.1383 7.52752 90.8011 7.59391 90.7775C12.9747 88.8623 18.4506 87.2697 23.8055 85.2717C36.8532 80.4031 50.1067 75.9269 63.6921 72.7918C78.4024 69.3971 94.0343 70.4671 109.023 70.4671" stroke="black" stroke-width="3" stroke-linecap="round"/>
</svg>
