<svg width="197" height="158" viewBox="0 0 197 158" fill="none" xmlns="http://www.w3.org/2000/svg"><path d="M194.962 2.358c-14.081 0-17.977 10.975-25.275 21.922-7.229 10.844-13.876 19.587-23.598 27.983-9.898 8.548-17.668 19.507-27.854 27.596-9.857 7.827-21.404 13.143-31.852 19.988-7.608 4.985-9.598 11.302-14.443 18.569" stroke="#000" stroke-width="3" stroke-linecap="round"/><path d="M92.83 69.672c-17.982 0-39.548 5.125-55.45 13.798-9.87 5.384-35.075 11.282-35.075 25.662 0 14.364 39.379 24.597 49.905 28.885 19.333 7.877 41.376 12.504 61.511 17.538" stroke="#000" stroke-width="3" stroke-linecap="round"/></svg>