<svg width="158" height="36" viewBox="0 0 158 36" fill="none" xmlns="http://www.w3.org/2000/svg"><path d="M88.753 1.56c-12.694 0-27.337.898-39.408 4.698-13.632 4.292-31.98 1.175-45.931 1.175-5.1 0 6.937 4.639 9.003 5.806 4.726 2.672 12.27 6.985 17.877 7.112 5.394.123 10.222-.44 15.332 1.762 3.44 1.482 26.02 11.313 25.51 12.33" stroke="#265452" stroke-width="3" stroke-linecap="round"/><path d="M55.87 13.305c7.445 2.707 15.364 4.923 22.509 8.286 5.956 2.802 12.483 5.522 19.117 5.806 6.239.268 12.03 2.35 18.333 2.35 13.303 0 26.555-1.175 39.864-1.175" stroke="#265452" stroke-width="3" stroke-linecap="round"/></svg>