<svg width="1440" height="97" viewBox="0 0 1440 97" fill="none" xmlns="http://www.w3.org/2000/svg"><path d="M80.833 85.543c-20.585 0-43.287-12.998-62.924-8.407-41.347 9.667 4.445 5.278 17.979-1.05C62.222 63.77 150.052 88.49 121.283 90.27c-33.258 2.06-59.195-32.112-94.384-22.59-7.975 2.157-15.426 12.64-22.473 13.135-1.213.085 25.893 1.72 33.959 3.678C55.877 88.739 67.036 95 85.327 95M1403 4.098c9.7 0 26.94-7.132 35 4.902M639.555 42.198c48.862-43.719 120.727-16.752 175.264-2.4 45.706 12.027 103.648 2.4 150.99 2.4 56.961 0 111.961-17.84 169.391-19.207 21.41-.51 42.25-9.511 62.96-13.872 17.45-3.673 38.19-.533 56.02-.533 46.07 0 92.75-4.802 139.25-4.802" stroke="#000" stroke-width="3" stroke-linecap="round"/><path d="M1350.22 8.586c18.35-5.437 59.68-11.428 76.83 0" stroke="#000" stroke-width="3" stroke-linecap="round"/></svg>