<svg width="1466" height="75" viewBox="0 0 1466 75" fill="none" xmlns="http://www.w3.org/2000/svg">
  <path d="M137.259 55.38c-.465-3.721-17.706-4.404-20.922-4.404-6.445 0-10.654.235-16.273 4.16-5.988 4.182-11.01 9.053-18.475 9.053-5.773 0-11.44.106-17.007 1.652-5.81 1.615-11.345-2.357-17.19.673-5.827 3.021-12.345 6.362-19.087 6.362-4.454 0-8.809-1.578-13.214-2.018-3.656-.366-7.438.397-11.073-.123-4.222-.603-2.314-.3 1.101 1.163m1457.941-47.35c4.43-5.064-17.81-5.506-18.48-5.506-10.98 0-21.91-1.101-32.79-1.101-8.37 0-16.59-.567-24.77-2.202-6.24-1.248-15.1-1.193-20.86-3.549-7.22-2.953-14.88-5.16-22.27-7.708-8.69-2.995-18.89-1.544-27.96-2.508-13.24-1.408-25.46 1.772-38.48 2.814-7.8.624-16.51 1.274-24.16 2.692-9.56 1.77-19.99.56-29.43 2.997-8.72 2.251-17.62 4.418-26.43 6.363-12.35 2.727-25.98 1.698-38.6 3.242-10.84 1.328-21.63 2.71-32.48 3.915-18.2 2.022-35.55-1.594-53.59-.306-16.42 1.173-32.57 3.06-49.06 3.06-8.36 0-16.86 2.024-24.842 4.404-12.52 3.734-27.783.179-40.498 0-9.517-.134-18.913-1.101-28.447-1.101-24.223 0-48.259 6.862-72.371 9.054-11.901 1.082-23.219 4.793-34.992 6.117-5.575.627-11.343.245-16.946.245-8.163 0-15.583 2.928-22.819 6.546-11.659 5.83-27.383 16.11-40.926 12.724-10.609-2.652-23.335-5.411-34.197-2.997-15.781 3.506-30.814-5.262-46.249-5.262" stroke="#000" stroke-width="3" stroke-linecap="round"/>
</svg>