<svg width="1432" height="64" viewBox="0 0 1432 64" fill="none" xmlns="http://www.w3.org/2000/svg"><path d="M698.558 24.384c13.14-1.752 25.159-5.112 38.625-4.698 6.736.208 11.049 13.039 15.398 17.616 4.365 4.595 10.114 4.308 16.18 5.35 8.321 1.43 17.202 3.937 25.184 6.655 17.492 5.957 29.732 15.18 48.672 12.136 9.465-1.521 18.63-5.647 27.794-8.351 20.718-6.114 41.081-13.71 62.504-17.225 20.9-3.43 41.361-5.61 62.569-5.61 12.226 0 26.836 1.328 38.426-3.524 7.92-3.316 17.3-4.698 25.9-4.698 8.24 0 16.42-.06 24.6-1.174 10.53-1.432 20.3-5.371 30.6-7.634 8.96-1.966 16.82-5.845 25.77-7.698 36.34-7.519 71.89-4.415 105.89 10.7 11.27 5.009 22.25 6.98 34.52 6.98 6.76 0 13.58-.453 20.09 1.697 11.05 3.644 18.99 1.077 30.47-.587 18.68-2.707 41.13-7.174 59.83-2.284 4.89 1.278 9.38 1.047 14.35 0 7.85-1.651 16.1-2.468 24.28-4.697M82.002 25.559c-4.477 0-10.569.522-14.68-1.762-2.925-1.625-5.687-3.594-8.677-5.09-5.083-2.54-11.688-1.26-17.16-1.434-5.016-.16-11.312-.119-15.984-2.284-2.743-1.271-3.94-3.654-7.308-4.437-5.396-1.255-11.244-.9-16.05-3.784" stroke="#265452" stroke-width="3" stroke-linecap="round"/></svg>