<svg width="479" height="734" viewBox="0 0 479 734" fill="none" xmlns="http://www.w3.org/2000/svg">
<path d="M243.802 88.4405C243.087 82.7261 237.639 83.5844 235.265 78.837C231.09 70.4861 236.065 62.9201 229.129 54.8281C218.38 42.2875 206.63 31.1453 194.717 20.1487C180.258 6.80239 144.218 2.00863 124.824 2.00863C102.469 2.00863 56.0843 0.797222 47.9959 27.0845C39.473 54.7842 48.1167 86.5188 58.9333 110.315C64.2952 122.111 79.6131 139.864 80.5413 151.931C81.5504 165.05 94.4671 191.062 102.416 201.282C122.428 227.012 148.391 258.69 157.37 290.115C167.103 324.182 197.96 347.717 215.258 376.547C224.431 391.835 245.43 385.139 255.539 405.357C262.842 419.963 271.419 433.586 277.414 448.573" stroke="black" stroke-width="3" stroke-linecap="round"/>
<path d="M239 83.6392C249.042 83.6392 256.902 83.179 265.143 76.4365C274.898 68.4546 284.263 72.3649 294.22 66.833C314.645 55.4855 341.667 70.2213 361.178 73.7689C427.562 85.8387 426.269 200.453 426.269 249.3C426.269 275.8 427.988 296.684 417.732 319.993C406.383 345.788 368.324 351.281 347.306 365.877C320.337 384.605 282.408 378.546 273.679 418.696C268.154 444.11 261.602 467.199 253.405 491.79" stroke="black" stroke-width="3" stroke-linecap="round"/>
<path d="M181.379 270.908C170.092 269.497 203.105 238.365 208.322 237.563C234.942 233.467 258.733 237.559 282.216 249.3C307.422 261.903 317.943 253.031 315.828 281.579C314.077 305.221 297.37 326.639 292.886 350.404C290.163 364.839 285.525 378.786 277.414 390.952" stroke="black" stroke-width="3" stroke-linecap="round"/>
<path d="M330.233 170.071C330.233 180.808 332.02 190.283 320.63 194.08" stroke="black" stroke-width="3" stroke-linecap="round"/>
<path d="M181.378 160.467C181.378 170.537 185.51 194.415 176.577 198.881" stroke="black" stroke-width="3" stroke-linecap="round"/>
<path d="M229.396 194.08C229.396 212.34 214.991 267.972 214.991 222.89" stroke="black" stroke-width="3" stroke-linecap="round"/>
<path d="M325.546 198.637C339.029 198.637 370.993 198.464 380.499 207.707C396.501 223.264 421.581 254.13 421.581 278.133C421.581 284.196 423.473 293.885 420.514 299.474C415.774 308.428 404.973 300.593 398.639 305.343C383.66 316.577 379.627 345.337 383.967 362.697C391.643 393.399 431.185 418.827 431.185 450.463C431.185 469.879 425.079 479.169 417.846 496.347C413.218 507.339 402.374 526.073 402.374 537.162C402.374 569.273 434.008 595.205 455.193 616.391" stroke="black" stroke-width="3" stroke-linecap="round"/>
<path d="M165.288 164.49C168.494 164.49 167.885 163.185 169.65 161.42C170.572 160.498 172.757 160.75 173.921 160.75C176.552 160.75 179.358 160.335 182.092 160.335C184.168 160.335 186.744 161.715 188.555 162.62C190.011 163.348 192.621 163.273 193.218 164.998C193.723 166.458 193.999 167.985 194.372 169.476" stroke="black" stroke-width="3" stroke-linecap="round"/>
<path d="M309.463 176.539C313.083 176.429 315.737 174.412 317.75 171.392C318.047 170.946 321.147 170.451 321.928 170.099C323.797 169.258 325.886 169.11 327.837 168.552C329.956 167.947 331.771 167.814 333.977 167.814C334.799 167.814 335.654 167.736 336.47 167.814C337.733 167.934 338.372 169.476 339.794 169.476C341.393 169.476 341.905 173.299 342.703 174.439C343.972 176.252 344.585 178.557 345.196 180.694" stroke="black" stroke-width="3" stroke-linecap="round"/>
<path d="M16.9578 658.509C15.5607 655.948 10.7846 655.244 8.64795 653.107" stroke="black" stroke-width="3" stroke-linecap="round"/>
<path d="M2 650.199H4.90844" stroke="black" stroke-width="3" stroke-linecap="round"/>
<path d="M181.149 200.637C178.546 231.865 153.126 254.877 145.402 284.668C128.464 350.001 111.817 415.989 94.7167 481.54C79.4797 539.949 53.7775 592.855 34.4277 649.336C28.8576 665.594 25.479 682.565 20.2892 698.954C16.8304 709.876 -0.504689 732.033 10.9524 732.033C14.4062 732.033 17.312 699.254 17.8883 695.219" stroke="black" stroke-width="3" stroke-linecap="round"/>
<path d="M455.716 617.79C459.013 614.859 469.25 636.23 471.412 638.472C474.136 641.297 480.884 652.405 474.321 654.676C470.981 655.833 467.869 656.936 464.857 658.693C463.556 659.452 461.93 659.22 460.54 660.147C458.957 661.203 458.598 663.535 458.117 665.156C457.825 666.135 456.653 666.72 456.547 667.741C456.465 668.532 456.591 669.348 456.547 670.142C456.492 671.13 455.755 671.807 455.716 672.82C455.671 674 455.716 675.192 455.716 676.374C455.716 678.867 456.613 680.727 457.378 683.022" stroke="black" stroke-width="3" stroke-linecap="round"/>
</svg>
