<svg width="290" height="508" viewBox="0 0 290 508" fill="none" xmlns="http://www.w3.org/2000/svg"><path d="M175.704 55.948c17.816-8.909 30.569-24.361 49.222-31.234 16.863-6.212 31.004-11.465 49.223-11.465 12.727 0 8.302 19.887 8.302 28.664 0 22.528 5.337 44.098 5.337 66.42 0 13.755-.068 28.533-3.558 41.908-6.913 26.501-17.937 55.197-33.408 77.887-22.376 32.819-45.207 67.022-76.107 92.514-11.358 9.371-21.379 21.182-31.826 31.629-6.532 6.532-12.859 13.857-17.001 22.14M168.587 52.39c-11.546-13.646-20.582-28.783-33.111-41.909-8.102-8.487-14.88-7.907-25.995-7.907-5.675 0-11.553-.414-17.198.099-8.62.784-12.723 16.4-15.32 23.326-3.462 9.23-2.902 18.983-8.007 27.774-4.505 7.759-5.97 19.15-7.907 27.774-4.57 20.359-8.105 38.937-8.105 59.799 0 51.541-3.141 102.41 14.332 151.917 5.961 16.89 5.904 35.776 13.343 52.781 7.795 17.815 22.063 33.438 36.374 46.158" stroke="#000" stroke-width="3" stroke-linecap="round"/><path d="M92.085 232.081c3.354-16.769 31.98-19.714 44.083-26.291 10.718-5.826 35.154-4.271 46.257 0 10.223 3.931-2.596 44.929-3.163 52.583-.242 3.271-3.059 5.981-3.954 9.291-1.454 5.381-2.879 10.855-4.942 16.012m1.779-144.109c-1.728 4.538-2.247 9.646-3.558 14.233m40.92-19.571c0 6.991-1.355 12.962-3.558 19.571m-71.165-21.35c-6.071-4.415-15.166-.282-21.35 1.779m88.957 46.258c.925 14.348 6.051 33.805 14.232 45.861 6.257 9.22 14.669 18.021 15.914 29.85 1.017 9.664 4.627 22.905 1.087 32.42-2.99 8.036-8.105 17.274-8.105 26.094 0 4.629-3.419 8.361-3.558 13.244-.166 5.823-.871 12.456.889 18.088 3.953 12.65 2.406 24.568 9.786 36.867 5.526 9.211 6.432 21.032 11.663 30.542 3.776 6.866 11.589 8.87 4.349 16.111" stroke="#000" stroke-width="3" stroke-linecap="round"/><path d="M97.422 150.241c-19.534 0-38.209 2.381-54.164 14.233-9.387 6.974-22.6 15.402-29.455 25.304-5.178 7.48-17.24 26.219-9.093 35.582 4.099 4.71 13.658 10.47 17.791 13.047 19.013 11.854 38.579 22.944 58.118 33.902 7.432 4.168 12.803 7.2 20.263 10.675 2.048.954 9.685 2.788 11.762 4.645 2.011 1.8-14.165 12.935-15.222 13.64-13.621 9.081-23.81 18.064-34.297 30.838-11.43 13.924-20.957 26.282-30.937 40.92-8.441 12.38-13.088 24.183-16.704 38.647-1.507 6.027-5.239 10.668-5.239 17 0 16.977 13.295 27.896 22.24 41.81 6.727 10.466 5.398 28.29 15.122 35.582m153.004-362.941c13.969-11.429 28.23-14.338 44.478-7.117m-120.98 0c0 6.597-.599 11.874-3.558 17.792" stroke="#000" stroke-width="3" stroke-linecap="round"/></svg>